HIERARCHY
ROOT Hips
{
	OFFSET 0.053599 88.859886 3.107447
	CHANNELS 6 Xposition Yposition Zposition Zrotation Yrotation Xrotation 
	JOINT Spine
	{
		OFFSET -0.000000 8.814246 -2.080107
		CHANNELS 3 Zrotation Yrotation Xrotation
		JOINT Spine1
		{
			OFFSET 0.000000 8.844141 0.000000
			CHANNELS 3 Zrotation Yrotation Xrotation
			JOINT Spine2
			{
				OFFSET -0.000000 11.682268 0.000000
				CHANNELS 3 Zrotation Yrotation Xrotation
				JOINT Spine3
				{
					OFFSET 0.000000 11.746700 0.000000
					CHANNELS 3 Zrotation Yrotation Xrotation
					JOINT Neck
					{
						OFFSET -0.000000 17.658264 -0.000000
						CHANNELS 3 Zrotation Yrotation Xrotation
						JOINT Neck1
						{
							OFFSET -0.000000 5.101515 -0.000000
							CHANNELS 3 Zrotation Yrotation Xrotation
							JOINT Head
							{
								OFFSET 0.000000 5.101515 0.000000
								CHANNELS 3 Zrotation Yrotation Xrotation
								JOINT HeadEnd
								{
									OFFSET 0.000000 11.655085 0.000000
									CHANNELS 3 Zrotation Yrotation Xrotation
									End Site
									{
										OFFSET 0.000000 0.000000 0.000000
									}
								}
							}
						}
					}
					JOINT RightShoulder
					{
						OFFSET -2.625389 11.175210 0.000000
						CHANNELS 3 Zrotation Yrotation Xrotation
						JOINT RightArm
						{
							OFFSET -0.000000 10.434715 -0.000000
							CHANNELS 3 Zrotation Yrotation Xrotation
							JOINT RightForeArm
							{
								OFFSET -0.000000 29.628420 0.000000
								CHANNELS 3 Zrotation Yrotation Xrotation
								JOINT RightHand
								{
									OFFSET -0.000000 22.857611 0.000000
									CHANNELS 3 Zrotation Yrotation Xrotation
									JOINT RightHandThumb1
									{
										OFFSET -2.867323 3.959563 2.944291
										CHANNELS 3 Zrotation Yrotation Xrotation
										JOINT RightHandThumb2
										{
											OFFSET 0.000000 3.350399 0.000000
											CHANNELS 3 Zrotation Yrotation Xrotation
											JOINT RightHandThumb3
											{
												OFFSET 0.000000 3.756509 -0.000000
												CHANNELS 3 Zrotation Yrotation Xrotation
												JOINT RightHandThumb4
												{
													OFFSET 0.000000 3.147345 0.000000
													CHANNELS 3 Zrotation Yrotation Xrotation
													End Site
													{
														OFFSET 0.000000 0.000000 0.000000
													}
												}
											}
										}
									}
									JOINT RightHandIndex1
									{
										OFFSET -0.086752 10.030893 2.345280
										CHANNELS 3 Zrotation Yrotation Xrotation
										JOINT RightHandIndex2
										{
											OFFSET -0.000000 4.061090 0.000000
											CHANNELS 3 Zrotation Yrotation Xrotation
											JOINT RightHandIndex3
											{
												OFFSET -0.000000 3.248873 0.000000
												CHANNELS 3 Zrotation Yrotation Xrotation
												JOINT RightHandIndex4
												{
													OFFSET 0.000000 2.639709 -0.000000
													CHANNELS 3 Zrotation Yrotation Xrotation
													End Site
													{
														OFFSET 0.000000 0.000000 0.000000
													}
												}
											}
										}
									}
									JOINT RightHandMiddle1
									{
										OFFSET 0.104102 9.502952 0.006768
										CHANNELS 3 Zrotation Yrotation Xrotation
										JOINT RightHandMiddle2
										{
											OFFSET 0.000000 4.568727 0.000000
											CHANNELS 3 Zrotation Yrotation Xrotation
											JOINT RightHandMiddle3
											{
												OFFSET 0.000000 3.654981 -0.000000
												CHANNELS 3 Zrotation Yrotation Xrotation
												JOINT RightHandMiddle4
												{
													OFFSET -0.000000 2.741236 -0.000000
													CHANNELS 3 Zrotation Yrotation Xrotation
													End Site
													{
														OFFSET 0.000000 0.000000 0.000000
													}
												}
											}
										}
									}
									JOINT RightHandRing1
									{
										OFFSET 0.086752 8.921708 -2.267442
										CHANNELS 3 Zrotation Yrotation Xrotation
										JOINT RightHandRing2
										{
											OFFSET -0.000000 4.061090 0.000000
											CHANNELS 3 Zrotation Yrotation Xrotation
											JOINT RightHandRing3
											{
												OFFSET 0.000000 3.654981 -0.000000
												CHANNELS 3 Zrotation Yrotation Xrotation
												JOINT RightHandRing4
												{
													OFFSET 0.000000 2.741236 -0.000000
													CHANNELS 3 Zrotation Yrotation Xrotation
													End Site
													{
														OFFSET 0.000000 0.000000 0.000000
													}
												}
											}
										}
									}
									JOINT RightHandPinky1
									{
										OFFSET -0.173504 7.976997 -4.467199
										CHANNELS 3 Zrotation Yrotation Xrotation
										JOINT RightHandPinky2
										{
											OFFSET 0.000000 3.350399 -0.000000
											CHANNELS 3 Zrotation Yrotation Xrotation
											JOINT RightHandPinky3
											{
												OFFSET -0.000000 2.842763 0.000000
												CHANNELS 3 Zrotation Yrotation Xrotation
												JOINT RightHandPinky4
												{
													OFFSET -0.000000 2.639709 0.000000
													CHANNELS 3 Zrotation Yrotation Xrotation
													End Site
													{
														OFFSET 0.000000 0.000000 0.000000
													}
												}
											}
										}
									}
									JOINT RightForeArmEnd
									{
										OFFSET 0.000000 0.000000 0.000000
										CHANNELS 3 Zrotation Yrotation Xrotation
										End Site
										{
											OFFSET 0.000000 0.000000 0.000000
										}
									}
								}
								JOINT RightArmEnd
								{
									OFFSET 0.000000 0.000000 0.000000
									CHANNELS 3 Zrotation Yrotation Xrotation
									End Site
									{
										OFFSET 0.000000 0.000000 0.000000
									}
								}
							}
						}
					}
					JOINT LeftShoulder
					{
						OFFSET 2.625389 11.175210 0.000000
						CHANNELS 3 Zrotation Yrotation Xrotation
						JOINT LeftArm
						{
							OFFSET 0.000000 10.813635 -0.000000
							CHANNELS 3 Zrotation Yrotation Xrotation
							JOINT LeftForeArm
							{
								OFFSET 0.000000 28.724781 0.000000
								CHANNELS 3 Zrotation Yrotation Xrotation
								JOINT LeftHand
								{
									OFFSET 0.644384 25.716167 -0.328871
									CHANNELS 3 Zrotation Yrotation Xrotation
									JOINT LeftHandThumb1
									{
										OFFSET 2.867323 3.959563 2.944291
										CHANNELS 3 Zrotation Yrotation Xrotation
										JOINT LeftHandThumb2
										{
											OFFSET 0.000000 3.350399 0.000000
											CHANNELS 3 Zrotation Yrotation Xrotation
											JOINT LeftHandThumb3
											{
												OFFSET -0.000000 3.756509 0.000000
												CHANNELS 3 Zrotation Yrotation Xrotation
												JOINT LeftHandThumb4
												{
													OFFSET -0.000000 3.100000 0.000000
													CHANNELS 3 Zrotation Yrotation Xrotation
													End Site
													{
														OFFSET 0.000000 0.000000 0.000000
													}
												}
											}
										}
									}
									JOINT LeftHandIndex1
									{
										OFFSET 0.086752 10.030893 2.345280
										CHANNELS 3 Zrotation Yrotation Xrotation
										JOINT LeftHandIndex2
										{
											OFFSET -0.000000 4.061090 -0.000000
											CHANNELS 3 Zrotation Yrotation Xrotation
											JOINT LeftHandIndex3
											{
												OFFSET 0.000000 3.248873 -0.000000
												CHANNELS 3 Zrotation Yrotation Xrotation
												JOINT LeftHandIndex4
												{
													OFFSET 0.000000 2.639709 -0.000000
													CHANNELS 3 Zrotation Yrotation Xrotation
													End Site
													{
														OFFSET 0.000000 0.000000 0.000000
													}
												}
											}
										}
									}
									JOINT LeftHandMiddle1
									{
										OFFSET -0.104102 9.502952 0.006768
										CHANNELS 3 Zrotation Yrotation Xrotation
										JOINT LeftHandMiddle2
										{
											OFFSET -0.000000 4.568727 -0.000000
											CHANNELS 3 Zrotation Yrotation Xrotation
											JOINT LeftHandMiddle3
											{
												OFFSET 0.000000 3.654981 0.000000
												CHANNELS 3 Zrotation Yrotation Xrotation
												JOINT LeftHandMiddle4
												{
													OFFSET 0.000000 2.741236 -0.000000
													CHANNELS 3 Zrotation Yrotation Xrotation
													End Site
													{
														OFFSET 0.000000 0.000000 0.000000
													}
												}
											}
										}
									}
									JOINT LeftHandRing1
									{
										OFFSET -0.086752 8.921708 -2.267442
										CHANNELS 3 Zrotation Yrotation Xrotation
										JOINT LeftHandRing2
										{
											OFFSET 0.000000 4.061090 0.000000
											CHANNELS 3 Zrotation Yrotation Xrotation
											JOINT LeftHandRing3
											{
												OFFSET 0.000000 3.654981 0.000000
												CHANNELS 3 Zrotation Yrotation Xrotation
												JOINT LeftHandRing4
												{
													OFFSET 0.000000 2.741236 0.000000
													CHANNELS 3 Zrotation Yrotation Xrotation
													End Site
													{
														OFFSET 0.000000 0.000000 0.000000
													}
												}
											}
										}
									}
									JOINT LeftHandPinky1
									{
										OFFSET 0.173504 7.976997 -4.467199
										CHANNELS 3 Zrotation Yrotation Xrotation
										JOINT LeftHandPinky2
										{
											OFFSET -0.000000 3.350399 -0.000000
											CHANNELS 3 Zrotation Yrotation Xrotation
											JOINT LeftHandPinky3
											{
												OFFSET 0.000000 2.842763 0.000000
												CHANNELS 3 Zrotation Yrotation Xrotation
												JOINT LeftHandPinky4
												{
													OFFSET -0.000000 2.639709 -0.000000
													CHANNELS 3 Zrotation Yrotation Xrotation
													End Site
													{
														OFFSET 0.000000 0.000000 0.000000
													}
												}
											}
										}
									}
									JOINT LeftForeArmEnd
									{
										OFFSET 0.000000 0.000000 0.000000
										CHANNELS 3 Zrotation Yrotation Xrotation
										End Site
										{
											OFFSET 0.000000 0.000000 0.000000
										}
									}
								}
								JOINT LeftArmEnd
								{
									OFFSET 0.000000 0.000000 0.000000
									CHANNELS 3 Zrotation Yrotation Xrotation
									End Site
									{
										OFFSET 0.000000 0.000000 0.000000
									}
								}
							}
						}
					}
				}
			}
		}
	}
	JOINT RightUpLeg
	{
		OFFSET -11.289943 0.000000 0.000000
		CHANNELS 3 Zrotation Yrotation Xrotation
		JOINT RightLeg
		{
			OFFSET 0.000000 -38.200325 0.000000
			CHANNELS 3 Zrotation Yrotation Xrotation
			JOINT RightFoot
			{
				OFFSET -0.000000 -39.900856 -0.000000
				CHANNELS 3 Zrotation Yrotation Xrotation
				JOINT RightToeBase
				{
					OFFSET 0.000000 0.000000 15.261641
					CHANNELS 3 Zrotation Yrotation Xrotation
					JOINT RightToeBaseEnd
					{
						OFFSET 0.000000 0.000000 7.370709
						CHANNELS 3 Zrotation Yrotation Xrotation
						End Site
						{
							OFFSET 0.000000 0.000000 0.000000
						}
					}
				}
				JOINT RightLegEnd
				{
					OFFSET 0.000000 0.000000 0.000000
					CHANNELS 3 Zrotation Yrotation Xrotation
					End Site
					{
						OFFSET 0.000000 0.000000 0.000000
					}
				}
			}
			JOINT RightUpLegEnd
			{
				OFFSET 0.000000 0.000000 0.000000
				CHANNELS 3 Zrotation Yrotation Xrotation
				End Site
				{
					OFFSET 0.000000 0.000000 0.000000
				}
			}
		}
	}
	JOINT LeftUpLeg
	{
		OFFSET 11.315661 -0.000000 0.000000
		CHANNELS 3 Zrotation Yrotation Xrotation
		JOINT LeftLeg
		{
			OFFSET -0.000000 -38.200325 -0.000000
			CHANNELS 3 Zrotation Yrotation Xrotation
			JOINT LeftFoot
			{
				OFFSET 0.000000 -39.900856 -0.000000
				CHANNELS 3 Zrotation Yrotation Xrotation
				JOINT LeftToeBase
				{
					OFFSET -0.000000 -0.000000 15.261641
					CHANNELS 3 Zrotation Yrotation Xrotation
					JOINT LeftToeBaseEnd
					{
						OFFSET 0.000000 -0.000000 7.539996
						CHANNELS 3 Zrotation Yrotation Xrotation
						End Site
						{
							OFFSET 0.000000 0.000000 0.000000
						}
					}
				}
				JOINT LeftLegEnd
				{
					OFFSET 0.000000 0.000000 0.000000
					CHANNELS 3 Zrotation Yrotation Xrotation
					End Site
					{
						OFFSET 0.000000 0.000000 0.000000
					}
				}
			}
			JOINT LeftUpLegEnd
			{
				OFFSET 0.000000 0.000000 0.000000
				CHANNELS 3 Zrotation Yrotation Xrotation
				End Site
				{
					OFFSET 0.000000 0.000000 0.000000
				}
			}
		}
	}
}
MOTION
Frames: 5
Frame Time: 0.016667
0.053599 88.859886 3.107447 0.490481 0.055862 -6.497332 0.023754 -0.000539 5.886370 -1.012250 0.067046 0.861970 0.478071 -2.416792 3.829567 0.155030 -0.780500 1.929224 2.330515 0.848112 5.016849 0.371683 2.117863 -3.221864 -0.714533 -0.852149 -18.222401 0.000000 0.000000 0.000000 92.418694 -0.394880 9.707912 65.456573 -33.431271 5.091406 -0.130291 12.440493 22.353239 6.882370 13.743960 -6.458578 19.861429 30.097643 62.040974 -8.462701 -12.164348 -20.450144 -6.325801 -8.139122 -14.332924 0.000000 0.000000 0.000000 12.621688 -10.712396 0.231899 8.905269 0.376633 1.323778 8.902945 -0.111869 1.243825 0.000000 0.000000 0.000000 11.194713 -5.446730 -1.239449 7.889823 0.455857 0.481039 7.889222 -0.037052 0.412494 0.000000 0.000000 0.000000 10.912717 2.564455 -1.535874 7.825817 -0.947299 -0.611652 7.824722 0.070320 -0.477096 0.000000 0.000000 0.000000 9.631022 11.185607 -2.805182 7.161172 -1.900893 -1.652070 7.157181 0.085565 -1.400512 0.000000 0.000000 0.000000 0.000000 0.000000 0.000000 0.000000 0.000000 0.000000 -90.370071 0.051974 5.208683 -71.842018 19.306828 -7.574249 -0.664994 -8.642401 40.885647 -0.139946 -25.486511 -15.477552 -20.250540 -29.996990 61.691063 8.807010 12.918287 -21.553112 6.618044 8.635277 -15.110494 0.000000 0.000000 0.000000 -16.168392 -5.636370 -1.918335 -11.569428 0.324957 -1.715407 -11.569072 -0.164917 -1.615128 0.000000 0.000000 0.000000 -15.643335 -0.758781 -1.694552 -11.169063 0.440303 -0.678956 -11.168735 -0.058746 -0.582722 0.000000 0.000000 0.000000 -18.003109 7.607869 -1.025503 -12.703986 -0.874371 0.992852 -12.702737 0.099213 0.772902 0.000000 0.000000 0.000000 -18.852142 16.262062 -0.245862 -13.102126 -1.657223 2.980032 -13.096694 0.281077 2.526406 0.000000 0.000000 0.000000 0.000000 0.000000 0.000000 0.000000 0.000000 0.000000 -1.045058 -10.518975 11.869204 -0.078405 -0.635030 3.758801 -2.197730 -7.901679 18.681496 -0.890004 0.828132 -18.870453 0.000000 0.000000 0.000000 0.000000 0.000000 0.000000 0.000000 0.000000 0.000000 -1.784023 -6.543907 7.474547 0.053202 0.398207 7.545935 3.843466 -1.785134 17.966772 0.194973 -0.390531 -20.817129 0.000000 0.000000 0.000000 0.000000 0.000000 0.000000 0.000000 0.000000 0.000000 
0.111575 88.920235 2.917356 -0.279763 -0.306238 -7.341289 1.302204 -0.183939 6.645341 -0.957778 0.117405 2.689846 0.744775 -1.607833 1.552120 -0.897674 -0.169251 3.115090 1.282577 2.307381 3.130240 0.361172 2.974326 -3.795748 -1.060629 -0.603300 -18.468918 0.000000 0.000000 0.000000 92.951286 -0.446902 9.601071 64.950874 -32.175716 4.062162 -0.109043 13.128296 23.195637 6.840937 13.044587 -6.924581 19.879671 30.091087 62.070885 -8.441038 -12.089516 -20.451178 -6.299488 -8.101617 -14.288335 0.000000 0.000000 0.000000 11.967231 -10.739209 -0.303233 8.958549 0.335766 1.320181 8.747313 -0.105081 1.256334 0.000000 0.000000 0.000000 10.814809 -5.345001 -1.093332 7.617728 0.423271 0.514274 7.985420 -0.051976 0.440257 0.000000 0.000000 0.000000 10.269481 2.582129 -0.832162 7.417725 -0.890483 -0.848044 7.461433 0.066237 -0.623121 0.000000 0.000000 0.000000 9.570548 11.051004 -1.772978 7.111260 -1.652516 -2.418120 6.697168 0.275028 -2.043860 0.000000 0.000000 0.000000 0.000000 0.000000 0.000000 0.000000 0.000000 0.000000 -89.900116 0.129382 6.005358 -71.702286 19.536098 -6.580185 -1.227005 -9.125965 40.436253 1.921036 -23.200933 -16.028488 -20.248388 -29.962709 61.603916 8.898939 12.950124 -21.692169 6.659348 8.667482 -15.161287 0.000000 0.000000 0.000000 -17.192781 -5.489744 -0.088843 -10.968686 0.295899 -1.385940 -11.088723 -0.166978 -1.278509 0.000000 0.000000 0.000000 -16.532719 -0.505874 -0.882205 -10.853565 0.409291 -0.587094 -10.776864 -0.065746 -0.471131 0.000000 0.000000 0.000000 -18.697050 7.526922 -0.733624 -12.356213 -0.869557 0.845814 -12.334010 0.083020 0.656730 0.000000 0.000000 0.000000 -19.963968 15.927286 -1.161326 -12.922432 -1.551420 2.641549 -12.777561 0.342027 2.247289 0.000000 0.000000 0.000000 0.000000 0.000000 0.000000 0.000000 0.000000 0.000000 0.137191 -9.166276 11.030300 -0.048775 -0.640753 6.161642 -2.888482 -9.028862 17.709751 -0.798078 0.759901 -19.024385 0.000000 0.000000 0.000000 0.000000 0.000000 0.000000 0.000000 0.000000 0.000000 -1.536528 -6.382938 7.199062 0.057375 0.366454 8.537552 3.718038 -0.550090 16.961569 0.389037 -0.473768 -20.501076 0.000000 0.000000 0.000000 0.000000 0.000000 0.000000 0.000000 0.000000 0.000000 
0.117367 88.906776 2.909236 -0.304270 -0.374116 -7.422071 1.301483 -0.171954 6.684618 -0.893599 0.103197 2.669423 0.743055 -1.574746 1.649195 -0.878222 -0.141158 3.172224 1.244694 2.224119 3.066648 0.354242 2.906595 -3.786957 -1.078749 -0.637849 -18.444304 0.000000 0.000000 0.000000 92.829704 -0.448579 9.529193 64.912407 -32.407013 4.114648 -0.054589 13.205131 23.248152 6.679566 12.590659 -6.916324 19.864296 30.094625 62.075672 -8.436996 -12.072762 -20.426924 -6.296855 -8.087104 -14.272372 0.000000 0.000000 0.000000 11.955542 -10.737946 -0.345628 9.003465 0.342379 1.293048 8.807662 -0.096871 1.230103 0.000000 0.000000 0.000000 10.837312 -5.337790 -1.083870 7.675153 0.424689 0.503633 8.043214 -0.049715 0.431985 0.000000 0.000000 0.000000 10.295908 2.571329 -0.779429 7.504772 -0.892693 -0.836162 7.554583 0.062435 -0.611225 0.000000 0.000000 0.000000 9.538330 11.035882 -1.640204 7.121224 -1.659836 -2.398451 6.729630 0.266227 -2.019413 0.000000 0.000000 0.000000 0.000000 0.000000 0.000000 0.000000 0.000000 0.000000 -89.852829 0.134579 6.031863 -71.882393 19.640335 -6.600634 -1.224723 -9.190842 40.503693 2.073147 -22.856319 -16.002012 -20.238159 -29.969069 61.617577 8.878427 12.924303 -21.656218 6.645469 8.647802 -15.129829 0.000000 0.000000 0.000000 -17.100176 -5.529724 -0.154276 -11.039383 0.298456 -1.365928 -11.135147 -0.162395 -1.263504 0.000000 0.000000 0.000000 -16.431202 -0.531403 -0.928056 -10.926882 0.409952 -0.583485 -10.848506 -0.065640 -0.468504 0.000000 0.000000 0.000000 -18.671671 7.518445 -0.791914 -12.435033 -0.869911 0.844736 -12.399621 0.082255 0.654899 0.000000 0.000000 0.000000 -19.972916 15.919062 -1.229529 -12.951026 -1.555440 2.622843 -12.783116 0.338312 2.245096 0.000000 0.000000 0.000000 0.000000 0.000000 0.000000 0.000000 0.000000 0.000000 0.151383 -9.094814 11.142452 -0.049118 -0.643431 6.082514 -2.840958 -9.055596 17.752079 -0.802724 0.761049 -19.029491 0.000000 0.000000 0.000000 0.000000 0.000000 0.000000 0.000000 0.000000 0.000000 -1.505059 -6.336987 7.191049 0.055812 0.355149 8.640374 3.714692 -0.539597 16.955711 0.369628 -0.477086 -20.530106 0.000000 0.000000 0.000000 0.000000 0.000000 0.000000 0.000000 0.000000 0.000000 
0.122649 88.898155 2.918780 -0.321367 -0.437615 -7.530442 1.309323 -0.165064 6.695170 -0.874399 0.102818 2.662310 0.753856 -1.551191 1.730977 -0.869267 -0.107351 3.251942 1.208046 2.172354 3.060083 0.365433 2.861033 -3.746263 -1.077147 -0.651340 -18.447863 0.000000 0.000000 0.000000 92.736000 -0.453910 9.472437 64.949211 -32.303875 4.018661 -0.033599 13.286087 23.415754 6.732318 12.152781 -6.875716 19.874199 30.094744 62.064411 -8.443583 -12.103742 -20.465250 -6.304432 -8.102815 -14.299239 0.000000 0.000000 0.000000 12.054408 -10.769490 -0.357093 9.125595 0.350342 1.262485 8.939071 -0.088783 1.201653 0.000000 0.000000 0.000000 10.947044 -5.353273 -1.059005 7.797552 0.427895 0.491548 8.162815 -0.046704 0.422021 0.000000 0.000000 0.000000 10.377082 2.566437 -0.695255 7.625170 -0.896432 -0.824167 7.679203 0.059171 -0.600297 0.000000 0.000000 0.000000 9.544881 11.048374 -1.474134 7.173533 -1.667593 -2.383479 6.799204 0.260309 -2.006700 0.000000 0.000000 0.000000 0.000000 0.000000 0.000000 0.000000 0.000000 0.000000 -89.827026 0.143307 6.035867 -72.014633 19.643393 -6.600418 -1.193355 -9.247495 40.535351 2.061300 -22.515036 -15.849740 -20.248281 -29.970312 61.614449 8.875535 12.924138 -21.674921 6.645711 8.652322 -15.134703 0.000000 0.000000 0.000000 -17.132263 -5.551701 -0.151797 -11.088062 0.302628 -1.342941 -11.162356 -0.157652 -1.244947 0.000000 0.000000 0.000000 -16.443083 -0.538764 -0.917206 -10.978871 0.411559 -0.575847 -10.907272 -0.064798 -0.461915 0.000000 0.000000 0.000000 -18.748951 7.524617 -0.754205 -12.493086 -0.871758 0.842155 -12.457591 0.080804 0.651123 0.000000 0.000000 0.000000 -20.098913 15.918916 -1.200013 -12.994587 -1.559130 2.616158 -12.804144 0.338201 2.248214 0.000000 0.000000 0.000000 0.000000 0.000000 0.000000 0.000000 0.000000 0.000000 0.146879 -9.019187 11.271893 -0.049332 -0.641998 6.077882 -2.795749 -9.071299 17.777262 -0.804033 0.762296 -19.039404 0.000000 0.000000 0.000000 0.000000 0.000000 0.000000 0.000000 0.000000 0.000000 -1.487920 -6.310831 7.203983 0.055168 0.352090 8.769175 3.715738 -0.531428 16.929117 0.359853 -0.481535 -20.542982 0.000000 0.000000 0.000000 0.000000 0.000000 0.000000 0.000000 0.000000 0.000000 
0.129613 88.892586 2.932240 -0.340483 -0.491943 -7.644639 1.323247 -0.159585 6.702281 -0.864616 0.104176 2.656667 0.759882 -1.515039 1.811168 -0.863058 -0.076996 3.322463 1.144634 2.166971 3.113983 0.382809 2.840304 -3.685086 -1.064996 -0.657497 -18.488297 0.000000 0.000000 0.000000 92.684662 -0.450871 9.449252 65.067688 -32.095600 3.854277 -0.022165 13.423102 23.570339 6.784941 11.790749 -6.797698 19.889277 30.091845 62.045143 -8.458088 -12.146935 -20.519331 -6.317883 -8.127703 -14.333959 0.000000 0.000000 0.000000 12.223270 -10.806705 -0.344339 9.243408 0.362912 1.220185 9.065276 -0.075905 1.164587 0.000000 0.000000 0.000000 11.126556 -5.381497 -1.014272 7.916430 0.433738 0.474419 8.277783 -0.041734 0.408036 0.000000 0.000000 0.000000 10.539392 2.544744 -0.582281 7.744171 -0.903814 -0.802676 7.799020 0.053180 -0.582942 0.000000 0.000000 0.000000 9.627625 11.045313 -1.287477 7.243136 -1.686676 -2.336076 6.878933 0.244767 -1.969060 0.000000 0.000000 0.000000 0.000000 0.000000 0.000000 0.000000 0.000000 0.000000 -89.822243 0.143307 6.036254 -72.051651 19.656599 -6.560368 -1.164635 -9.286219 40.605541 1.889114 -22.175114 -15.716567 -20.248934 -29.970053 61.613056 8.880312 12.909698 -21.679146 6.645448 8.645146 -15.130304 0.000000 0.000000 0.000000 -17.186977 -5.553992 -0.117678 -11.092591 0.316159 -1.291769 -11.151722 -0.143504 -1.200918 0.000000 0.000000 0.000000 -16.483278 -0.535585 -0.873721 -10.984474 0.417349 -0.555813 -10.923483 -0.060199 -0.445144 0.000000 0.000000 0.000000 -18.835972 7.525502 -0.673894 -12.516229 -0.879625 0.822301 -12.474806 0.074605 0.635038 0.000000 0.000000 0.000000 -20.235088 15.905162 -1.137193 -13.012015 -1.580161 2.559399 -12.801236 0.321863 2.209142 0.000000 0.000000 0.000000 0.000000 0.000000 0.000000 0.000000 0.000000 0.000000 0.136559 -8.942665 11.400982 -0.049564 -0.639768 6.093798 -2.757501 -9.053550 17.798986 -0.802577 0.761411 -19.050165 0.000000 0.000000 0.000000 0.000000 0.000000 0.000000 0.000000 0.000000 0.000000 -1.474666 -6.307765 7.234017 0.054714 0.348310 8.886830 3.713646 -0.505878 16.913673 0.354300 -0.483584 -20.555119 0.000000 0.000000 0.000000 0.000000 0.000000 0.000000 0.000000 0.000000 0.000000 
